<svg width="52" height="40" viewBox="0 0 52 40" fill="none" xmlns="http://www.w3.org/2000/svg">
<path d="M39.582 0C44.4605 0 47.7501 0.444118 49.4502 1.33301C51.1502 2.22191 52 3.98225 52 6.61328V10.5068C52 12.5334 51.1128 14.0092 49.3389 14.9336C48.4519 15.3958 47.2692 15.84 45.791 16.2666C44.3866 16.6933 42.6497 17.209 40.5801 17.8135L34.7246 19.6572C34.6382 19.3298 34.5938 18.925 34.5938 18.4424V14.2168L45.0137 11.0342L45.165 5.7832L41.6543 6.89648L34.5938 8.96582V4.18848L32.6641 1.37891C31.752 1.7768 30.6772 2.23411 29.4395 2.74902C28.2016 3.26397 26.8984 3.74375 25.5303 4.18848C24.1621 4.63321 20.1389 6.4828 18.8359 6.76367L18.8184 9.23535L17.6523 9.55664C17.2183 9.68306 16.057 10.0213 16.1279 10.0957L16.124 21.3789C16.124 22.3798 16.1249 24.0442 16.126 25.5166L16.124 25.5176L16.0771 36.373H23.2832V40H0V36.373H6.98535V3.67969H0V0H39.582ZM26.6787 18.6182C26.6787 19.0901 26.7005 20.7115 26.752 22.1689L22.8428 23.4004V9.58203L26.6787 8.85742V18.6182Z" fill="#14B984"/>
<path d="M42.9981 13.7931C42.6955 13.7931 41.6544 14.4828 41.6544 13.1924C41.6544 13.1924 41.6544 6.2069 41.6544 5.51724C41.6544 4.82758 42.3263 4.82758 42.3263 4.82758L45.0136 4.13793L47.9189 3.53726C48.2216 3.53726 48.3729 3.73748 48.3729 4.13793L48.5262 11.4331C48.5262 11.8335 47.8544 12.1228 47.8544 12.1228C47.8544 12.1228 47.4992 12.2402 47.0292 12.4138C46.3952 12.6478 45.0136 13.1034 45.0136 13.1034L42.9981 13.7931Z" fill="white"/>
</svg>
